<?xml version="1.0" encoding="iso-8859-1"?>
<!-- Generator: Adobe Illustrator 19.0.0, SVG Export Plug-In . SVG Version: 6.00 Build 0)  -->
<svg version="1.1" id="Layer_1" xmlns="http://www.w3.org/2000/svg" xmlns:xlink="http://www.w3.org/1999/xlink" x="0px" y="0px"
	 viewBox="0 0 512 512" style="enable-background:new 0 0 512 512;" xml:space="preserve">
<g>
	<g>
		<path d="M256,0C114.615,0,0,114.616,0,256s114.615,256,256,256s256-114.616,256-256S397.385,0,256,0z M256,380.198
			c0,0-133.571-82.945-133.571-156.963c0-40.175,32.568-72.743,72.743-72.743c25.446,0,47.828,13.076,60.828,32.865
			c13-19.79,35.381-32.865,60.828-32.865c40.174,0,72.743,32.568,72.743,72.743C389.571,297.253,256,380.198,256,380.198z"/>
	</g>
</g>
<g>
</g>
<g>
</g>
<g>
</g>
<g>
</g>
<g>
</g>
<g>
</g>
<g>
</g>
<g>
</g>
<g>
</g>
<g>
</g>
<g>
</g>
<g>
</g>
<g>
</g>
<g>
</g>
<g>
</g>
</svg>
